<svg xmlns="http://www.w3.org/2000/svg" viewBox="0.5 60.5 22.5 22.5" width="24" height="24" fill="none" aria-hidden="true">
  <path
    fill="#fff"
    fill-rule="evenodd"
    clip-rule="evenodd"
    d="M11.0813 62.0451C9.20729 62.2101 7.35829 62.9491 5.80129 64.1541C5.36429 64.4931 4.49429 65.3631 4.15529 65.8001C2.35529 68.1261 1.65029 70.9951 2.17929 73.8461C2.46929 75.4121 3.13829 76.8861 4.15529 78.2001C4.49429 78.6371 5.36429 79.5071 5.80129 79.8461C8.24229 81.7351 11.2543 82.4121 14.2413 81.7411C16.7283 81.1821 18.9933 79.5971 20.3863 77.4401C21.1923 76.1931 21.6693 74.9131 21.9073 73.3601C22.0053 72.7191 22.0053 71.2811 21.9073 70.6401C21.6223 68.7821 20.9713 67.2521 19.8473 65.8001C19.5083 65.3631 18.6383 64.4931 18.2013 64.1541C16.1343 62.5551 13.6473 61.8181 11.0813 62.0451ZM12.8333 64.0421C14.3731 64.2143 15.8323 64.8201 17.0413 65.7891C17.3953 66.0751 18.0683 66.7611 18.3273 67.1001C19.4049 68.5071 19.9928 70.2279 20.0013 72.0001C19.9928 73.8342 19.362 75.6111 18.2123 77.0401C17.9263 77.3941 17.2403 78.0671 16.9013 78.3261C15.4943 79.4037 13.7735 79.9916 12.0013 80.0001C10.2291 79.9916 8.50828 79.4037 7.10129 78.3261C6.76229 78.0671 6.07629 77.3941 5.79029 77.0401C4.8343 75.8618 4.23361 74.4356 4.05847 72.9284C3.88332 71.4212 4.14098 69.8953 4.80129 68.5291C5.16334 67.7556 5.65701 67.0508 6.26029 66.4461C6.908 65.7627 7.67661 65.2049 8.52729 64.8011C9.8647 64.1545 11.3554 63.8917 12.8333 64.0421ZM11.6743 67.0631C11.3053 67.1771 11.0013 67.6091 11.0013 68.0201C11.0013 68.4151 11.3203 68.8311 11.7103 68.9441C11.8675 68.9939 12.0346 69.0034 12.1964 68.972C12.3583 68.9405 12.5096 68.869 12.6367 68.764C12.7638 68.659 12.8625 68.5238 12.924 68.3708C12.9854 68.2178 13.0075 68.0519 12.9883 67.8881C12.9689 67.7009 12.8958 67.5232 12.7779 67.3765C12.6599 67.2298 12.502 67.1203 12.3233 67.0611C12.1133 66.9871 11.9213 66.9871 11.6743 67.0631ZM10.6743 70.0631C10.3113 70.1751 10.0013 70.6061 10.0013 71.0001C10.0013 71.4051 10.3103 71.8261 10.6913 71.9391C10.8033 71.9731 10.9193 72.0001 10.9483 72.0001C10.9913 72.0001 11.0013 72.4701 11.0013 74.5731C11.0013 77.4861 10.9913 77.3841 11.3083 77.7011C11.5543 77.9471 11.7943 78.0141 12.3563 77.9921C12.8423 77.9741 13.0203 77.9061 13.2403 77.6551C13.4213 77.4491 13.4813 77.2841 13.4813 76.9941C13.4813 76.6901 13.3813 76.4641 13.1593 76.2631L13.0013 76.1201V73.5071C13.0013 70.5311 13.0093 70.6141 12.6983 70.3031C12.4393 70.0451 12.2563 69.9991 11.4843 70.0031C11.0623 70.0051 10.8013 70.0241 10.6743 70.0631Z"
  />
</svg>
