<svg
  xmlns="http://www.w3.org/2000/svg"
  width="24"
  height="24"
  viewBox="0 0 24 24"
  fill="none"
  aria-hidden="true"
>
  <path
    fill="#fff"
    fill-rule="evenodd"
    clip-rule="evenodd"
    d="M11.5392 2.02279C10.7142 2.10179 10.2492 2.19979 9.61922 2.42679C8.65559 2.77545 7.78045 3.3318 7.05584 4.05641C6.33122 4.78103 5.77487 5.65617 5.42622 6.61979C5.05622 7.64979 5.03322 7.85779 5.00422 10.5268L4.97922 12.7938L4.02722 14.7068C3.09822 16.5748 3.07622 16.6258 3.07822 16.8598C3.08122 17.3338 3.25322 17.6378 3.63922 17.8558L3.85922 17.9798L5.99222 17.9998L8.12522 18.0198L8.21922 18.2878C8.42479 18.8703 8.75968 19.3987 9.19874 19.8333C9.63779 20.2678 10.1696 20.5972 10.7542 20.7968C11.0492 20.8968 11.6792 20.9998 11.9992 20.9998C12.1202 20.9998 12.3922 20.9728 12.6042 20.9418C13.3245 20.8294 14.0006 20.5229 14.56 20.0553C15.1193 19.5878 15.5408 18.9767 15.7792 18.2878L15.8732 18.0198L18.0062 17.9998L20.1392 17.9798L20.3592 17.8558C20.7452 17.6378 20.9172 17.3338 20.9202 16.8598C20.9222 16.6258 20.9002 16.5748 19.9712 14.7068L19.0192 12.7938L18.9942 10.5268C18.9652 7.85779 18.9422 7.64979 18.5722 6.61979C17.7152 4.23779 15.5802 2.47279 13.1012 2.09779C12.7252 2.04079 11.8122 1.99679 11.5392 2.02279ZM12.9992 4.10079C13.9992 4.31879 14.7992 4.75579 15.5212 5.47779C16.1062 6.06279 16.4742 6.64779 16.7312 7.39979C16.9692 8.09879 16.9702 8.10779 16.9962 10.6398C17.0192 12.7798 17.0282 13.0058 17.0992 13.2798C17.1492 13.4758 17.3822 13.9948 17.7682 14.7728C18.0932 15.4288 18.3592 15.9738 18.3592 15.9828C18.3592 15.9918 15.4972 15.9998 11.9992 15.9998C8.50122 15.9998 5.63922 15.9918 5.63922 15.9828C5.63922 15.9738 5.90522 15.4288 6.23022 14.7728C6.61622 13.9948 6.84922 13.4758 6.89922 13.2798C6.97022 13.0058 6.97922 12.7798 7.00222 10.6398C7.02822 8.10779 7.02922 8.09879 7.26722 7.39979C7.52422 6.64779 7.89222 6.06279 8.47722 5.47779C8.92522 5.02979 9.27122 4.77779 9.78422 4.52579C10.2952 4.27379 10.6272 4.17379 11.4392 4.02379C11.6502 3.98479 12.7092 4.03679 12.9992 4.10079ZM13.7192 18.0408C13.7192 18.0628 13.5892 18.2138 13.4292 18.3758C13.1202 18.6888 12.8632 18.8428 12.4912 18.9398C12.0123 19.0556 11.5079 18.9971 11.0682 18.7748C10.8682 18.6738 10.2792 18.1258 10.2792 18.0408C10.2792 18.0138 10.8572 17.9998 11.9992 17.9998C13.1412 17.9998 13.7192 18.0138 13.7192 18.0408Z"
  />
</svg>
