<svg width="24" height="24" viewBox="0 0 24 24" fill="none" xmlns="http://www.w3.org/2000/svg">
  <path
    fill-rule="evenodd"
    clip-rule="evenodd"
    d="M7.59768 4.02909C7.15185 4.10828 6.7369 4.31014 6.39939 4.61202C6.06188 4.9139 5.81517 5.30385 5.68693 5.73813L5.61328 5.99588V18.0032L5.68693 18.2609C5.90706 19.0302 6.52904 19.6602 7.30951 19.9075L7.56647 19.9884L12.6231 19.9972C18.321 20.0068 17.9063 20.0244 18.1657 19.765C18.3354 19.5953 18.4234 19.3416 18.393 19.111C18.381 19.0222 18.2594 18.73 18.0848 18.3706C17.6998 17.5781 17.699 17.6285 18.0928 16.82L18.389 16.2117L18.3978 10.8636C18.4042 7.1798 18.397 5.45075 18.373 5.30746C18.2778 4.72791 17.7967 4.20279 17.2227 4.0531C17.0282 4.00267 16.66 3.99867 12.3854 4.00027C9.84064 4.00107 7.68574 4.01468 7.59768 4.02909ZM16.8041 10.3978V15.1999L12.1853 15.2095C7.93309 15.2183 7.55286 15.2239 7.39036 15.2743L7.20545 15.3295C7.20144 15.3295 7.20144 13.2659 7.20545 10.7428L7.21425 6.15598L7.30311 6.00469C7.40317 5.83418 7.55766 5.70451 7.73457 5.64127C7.83223 5.60605 8.67514 5.59804 12.3294 5.59724L16.8041 5.59564V10.3978ZM10.1384 8.04753C9.84785 8.13718 9.5997 8.48219 9.5997 8.79758C9.5997 9.12178 9.84705 9.45878 10.152 9.54924C10.3954 9.62208 13.6069 9.62208 13.8503 9.54924C14.1529 9.45958 14.4026 9.11938 14.4026 8.79758C14.4026 8.47579 14.1529 8.13558 13.8503 8.04593C13.6141 7.97548 10.3666 7.97708 10.1384 8.04753ZM16.3094 16.8617C16.1669 17.3456 16.1669 17.8603 16.3094 18.3442C16.3278 18.4018 16.2077 18.4034 12.1052 18.4034C7.41517 18.4034 7.70975 18.417 7.47441 18.1881C7.2871 18.0072 7.21665 17.8463 7.21665 17.6029C7.21665 17.362 7.2895 17.1931 7.46881 17.0226C7.71215 16.7904 7.37595 16.8064 12.0916 16.804C16.2077 16.8024 16.3278 16.804 16.3094 16.8617Z"
    fill="#10161F"
  />
</svg>
