<svg xmlns="http://www.w3.org/2000/svg" viewBox="19.5 20.5 22.5 22.5" width="24" height="24" fill="none" aria-hidden="true">
  <path
    fill="#fff"
    fill-rule="evenodd"
    clip-rule="evenodd"
    d="M30.2487 22.0432C28.9757 22.1382 27.8257 22.4532 26.6187 23.0402C25.3048 23.6738 24.1475 24.5904 23.2297 25.7242C22.0467 27.2002 21.3407 28.8642 21.0737 30.8002C21.0067 31.2902 21.0067 32.7472 21.0737 33.2402C21.1397 33.7262 21.2997 34.4782 21.3757 34.6592C21.4787 34.9052 21.6387 35.0742 21.8887 35.1992C22.2697 35.3892 22.6647 35.3622 23.0077 35.1242C23.1857 35.0002 25.4417 32.4152 25.5867 32.1682C25.7247 31.9352 25.7537 31.5672 25.6577 31.2782C25.5187 30.8602 25.0907 30.5602 24.6337 30.5602C24.4807 30.5602 23.3647 30.8192 23.1317 30.9082C23.0657 30.9342 23.0837 30.7722 23.2077 30.2202C23.6327 28.3402 24.8087 26.5902 26.3987 25.4722C27.9047 24.4132 29.8307 23.8842 31.6187 24.0382C33.5037 24.2012 35.1697 24.9472 36.5277 26.2372C37.5276 27.1923 38.2624 28.3906 38.6601 29.715C39.0579 31.0393 39.1049 32.4442 38.7967 33.7922C37.9637 37.4062 34.7347 39.9962 31.0587 39.9992C29.9366 40.0125 28.8248 39.7843 27.7987 39.3302C27.0497 39.0032 26.5637 38.6972 25.7757 38.0582C25.3227 37.6922 25.1457 37.6162 24.8237 37.6542C24.5537 37.6862 24.3027 37.8182 24.1537 38.0062C23.9187 38.3032 23.8697 38.5792 23.9827 38.9612C24.0607 39.2242 24.3127 39.4802 24.9987 39.9972C27.5037 41.8822 30.6447 42.4632 33.7387 41.6142C36.3907 40.8862 38.6797 38.9912 39.9397 36.4782C40.6567 35.0482 40.9747 33.6782 40.9757 32.0202C40.9757 30.8952 40.8637 30.0862 40.5717 29.1202C39.9001 26.9043 38.4812 24.9896 36.5567 23.7022C34.6935 22.4709 32.4765 21.8879 30.2487 22.0432ZM30.6717 26.0632C30.5311 26.1127 30.4042 26.195 30.3017 26.3032C29.9867 26.6182 29.9947 26.5282 30.0077 29.5842C30.0177 32.1172 30.0227 32.2692 30.0947 32.4202C30.1447 32.5242 30.7437 33.1542 31.8147 34.2262C33.3877 35.8022 33.4677 35.8762 33.6757 35.9362C33.9467 36.0162 34.0507 36.0162 34.3087 35.9392C34.5877 35.8562 34.8547 35.5892 34.9377 35.3102C35.0147 35.0512 35.0147 34.9472 34.9347 34.6772C34.8737 34.4712 34.7977 34.3872 33.4347 33.0182L31.9987 31.5772V29.2362C31.9987 26.5622 32.0037 26.6112 31.6957 26.3032C31.4167 26.0242 31.0657 25.9422 30.6717 26.0632Z"
  />
</svg>
