<svg width="24" height="24" viewBox="0 0 24 24" fill="none" xmlns="http://www.w3.org/2000/svg">
<path fill-rule="evenodd" clip-rule="evenodd" d="M11.5684 3.23785C11.214 3.33255 10.9191 3.549 7.10951 6.5144C2.71281 9.93526 3.00593 9.67551 3.00322 10.158C3.00232 10.4403 3.07718 10.618 3.28281 10.8173C3.48483 11.0139 3.68595 11.0626 4.28751 11.0626H4.78625L4.78805 14.7874C4.79076 18.9406 4.78084 18.7647 5.03968 19.1949C5.19029 19.4447 5.49603 19.7369 5.75217 19.8758C6.14359 20.0878 5.92353 20.0806 12.0013 20.0806C18.0764 20.0806 17.8564 20.0878 18.2523 19.8758C18.494 19.7469 18.8818 19.3591 19.0108 19.1174C19.2173 18.7313 19.2155 18.7701 19.2155 14.7513L19.2164 11.0626H19.7125C19.9848 11.0626 20.2716 11.0446 20.3492 11.0229C20.4844 10.985 20.6088 10.9161 20.7127 10.8216C20.8165 10.7271 20.8969 10.6096 20.9473 10.4786C20.9978 10.3476 21.0169 10.2066 21.0033 10.0668C20.9896 9.92711 20.9435 9.79249 20.8687 9.67371C20.7731 9.524 13.1539 3.57336 12.8383 3.4029C12.7173 3.33931 12.5905 3.28766 12.4595 3.24868C12.2494 3.19276 11.7605 3.18735 11.5684 3.23785ZM14.891 7.23501L17.7364 9.44824L17.6282 9.58442C17.4009 9.87122 17.4126 9.62681 17.4126 14.1516V18.2777H14.7106L14.6989 15.7795L14.6871 13.2813L14.597 12.9917C14.4631 12.5645 14.2276 12.1761 13.9108 11.8598C13.594 11.5435 13.2053 11.3086 12.7779 11.1753C12.5316 11.1005 12.4144 11.087 12.0013 11.087C11.5883 11.087 11.471 11.1005 11.2248 11.1753C10.7974 11.3086 10.4087 11.5435 10.0918 11.8598C9.77503 12.1761 9.5396 12.5645 9.40571 12.9917L9.31552 13.2813L9.30379 15.7795L9.29207 18.2777H6.59002V14.1705C6.59002 9.67912 6.59904 9.86761 6.37808 9.58893L6.26624 9.44824L9.12522 7.22509C10.6972 6.00213 11.9977 5.00645 12.014 5.01276C12.9775 5.74758 13.9366 6.48834 14.891 7.23501ZM12.4496 12.989C12.6345 13.0973 12.7815 13.2731 12.8518 13.4706C12.8906 13.578 12.9005 14.0848 12.9014 15.9418L12.9032 18.2777H11.0976L11.1076 15.8877L11.1175 13.4977L11.2176 13.3272C11.3294 13.1369 11.5017 12.9908 11.7037 12.916C11.9084 12.8393 12.2512 12.8727 12.4496 12.989Z" fill="#10161F"/>
</svg>
