<svg width="24" height="24" viewBox="0 0 24 24" fill="none" xmlns="http://www.w3.org/2000/svg" aria-hidden="true">
  <path fill-rule="evenodd" clip-rule="evenodd" d="M11.3799 2.04276C9.08088 2.26976 7.07788 3.86276 6.32888 6.05976C6.13612 6.65869 6.02578 7.28107 6.00088 7.90976C5.99988 7.99876 5.99488 7.99976 5.39788 7.99976C4.99588 7.99976 4.70388 8.02076 4.52188 8.06176C3.84988 8.21476 3.24988 8.80076 3.07288 9.47676C3.00988 9.71876 3.00488 10.1568 3.00488 14.9998C3.00488 19.8428 3.00988 20.2808 3.07288 20.5228C3.25288 21.2118 3.85988 21.7948 4.54888 21.9408C4.95488 22.0268 19.0449 22.0268 19.4509 21.9408C19.8219 21.8628 20.0919 21.7088 20.4009 21.4008C20.7089 21.0918 20.8629 20.8218 20.9409 20.4508C21.0269 20.0468 21.0269 9.95276 20.9409 9.54876C20.7949 8.85976 20.2119 8.25276 19.5229 8.07276C19.3309 8.02276 19.0899 8.00376 18.6299 8.00176C18.0039 7.99976 17.9999 7.99876 17.9989 7.90976C17.9894 7.75152 17.9767 7.59349 17.9609 7.43576C17.8429 6.06371 17.2436 4.77756 16.2689 3.80476C14.9799 2.49076 13.2299 1.85976 11.3799 2.04276ZM12.7729 4.08276C13.4227 4.20985 14.0305 4.49696 14.5414 4.91811C15.0523 5.33926 15.4501 5.88116 15.6989 6.49476C15.8469 6.85276 15.9999 7.52376 15.9999 7.81576V7.99976H7.99988V7.81576C7.99988 7.53376 8.15088 6.85576 8.28888 6.52076C9.02788 4.71976 10.9019 3.70076 12.7729 4.08276ZM18.9999 14.9998V19.9998H4.99988V9.99976H18.9999V14.9998ZM11.4769 12.0728C10.6309 12.2938 9.99988 13.1168 9.99988 13.9998C9.99988 14.6308 10.3729 15.3368 10.8699 15.6458L10.9999 15.7268V16.4358C10.9999 17.2778 11.0369 17.4308 11.3059 17.6998C11.4859 17.8788 11.7639 17.9998 11.9999 17.9998C12.2369 17.9998 12.5139 17.8798 12.6969 17.6968C12.9589 17.4348 12.9999 17.2618 12.9999 16.4158V15.7268L13.1379 15.6408C13.3509 15.5098 13.6629 15.1438 13.7979 14.8688C13.8689 14.7238 13.9389 14.4908 13.9669 14.3098C14.0116 14.0254 13.9943 13.7347 13.916 13.4576C13.8378 13.1806 13.7005 12.9237 13.5137 12.7047C13.3268 12.4858 13.0947 12.3098 12.8334 12.189C12.5721 12.0681 12.2878 12.0053 11.9999 12.0048C11.8569 12.0048 11.6219 12.0358 11.4769 12.0728Z" fill="#ffffff"/>
</svg>
