<svg width="400" height="512" viewBox="0 0 400 512" fill="none" xmlns="http://www.w3.org/2000/svg">
<path d="M0 0V419.74L199.77 512L400 419.74V0H0Z" fill="#AD5600"/>
<path d="M0 339.023V378.943L199.77 471.203L400 378.943V339.023L199.77 431.283L0 339.023Z" fill="white"/>
<path d="M295.16 238.64C295.16 254.253 292.4 267.753 286.88 279.14C281.713 290.101 274.146 299.76 264.74 307.4C255.386 314.911 244.699 320.59 233.24 324.14C210.73 331.192 186.659 331.567 163.94 325.22C153.877 322.399 144.291 318.092 135.5 312.44C127.035 306.998 119.589 300.113 113.5 292.1C107.332 283.969 102.752 274.748 100 264.92L155.08 248C157.599 256.733 162.831 264.438 170.02 270C177.353 275.76 186.053 278.64 196.12 278.64C205.893 278.837 215.412 275.515 222.94 269.28C230.527 263.027 234.32 253.79 234.32 241.57C234.32 234.143 232.76 227.903 229.64 222.85C226.635 217.93 222.501 213.795 217.58 210.79C212.422 207.705 206.752 205.571 200.84 204.49C194.671 203.297 188.403 202.694 182.12 202.69C171.672 202.822 161.254 203.845 150.98 205.75C140.38 207.522 129.959 210.233 119.84 213.85L125.92 68H282.2V119.84H179.6L177.44 160.16C181.638 159.142 185.912 158.473 190.22 158.16C194.887 157.8 199.147 157.62 203 157.62C215.179 157.531 227.306 159.215 239 162.62C249.712 165.688 259.693 170.892 268.34 177.92C276.666 184.85 283.352 193.538 287.92 203.36C292.747 213.44 295.16 225.2 295.16 238.64Z" fill="white"/>
</svg>
