<svg width="400" height="512" viewBox="0 0 400 512" fill="none" xmlns="http://www.w3.org/2000/svg">
<path d="M0 0V419.74L199.77 512L400 419.74V0H0Z" fill="#EC9A00"/>
<path d="M0 339.023V378.943L199.77 471.203L400 378.943V339.023L199.77 431.283L0 339.023Z" fill="white"/>
<path d="M293.6 249.275C293.6 263.175 290.78 275.218 285.14 285.405C279.724 295.335 272.16 303.93 263 310.565C253.685 317.247 243.266 322.237 232.22 325.305C220.92 328.523 209.229 330.155 197.48 330.155C186.141 330.164 174.841 328.821 163.82 326.155C153.304 323.679 143.228 319.612 133.94 314.095C124.868 308.637 116.876 301.56 110.36 293.215C103.64 284.708 98.6 274.448 95.24 262.435L151.4 247.675C153.8 256.082 158.72 263.462 166.16 269.815C173.6 276.168 183.08 279.348 194.6 279.355C199.041 279.344 203.46 278.738 207.74 277.555C212.007 276.45 216.034 274.568 219.62 272.005C223.195 269.382 226.145 266.002 228.26 262.105C230.54 258.032 231.68 252.992 231.68 246.985C231.68 240.505 230.18 235.105 227.18 230.785C224.137 226.428 220.053 222.901 215.3 220.525C210.025 217.889 204.381 216.069 198.56 215.125C192.378 214.05 186.115 213.508 179.84 213.505H163.64V169.595H181.28C186.825 169.612 192.362 169.19 197.84 168.335C202.814 167.587 207.623 165.994 212.06 163.625C216.142 161.439 219.608 158.262 222.14 154.385C224.66 150.525 225.92 145.455 225.92 139.175C225.92 129.995 222.68 122.995 216.2 118.175C209.766 113.358 201.917 110.808 193.88 110.925C185.701 110.766 177.73 113.508 171.38 118.665C164.983 123.921 160.608 131.234 159 139.355L102.84 126.355C105.665 116.13 110.417 106.538 116.84 98.0951C123.002 90.1605 130.501 83.3619 139 78.0051C147.636 72.5541 157.041 68.4282 166.9 65.7651C177.002 63.0055 187.428 61.6131 197.9 61.6251C209.023 61.6082 220.099 63.0642 230.84 65.9551C241.082 68.6403 250.757 73.149 259.4 79.2652C267.738 85.2063 274.679 92.8951 279.74 101.795C284.9 110.815 287.48 121.452 287.48 133.705C287.48 147.892 283.46 159.852 275.42 169.585C267.507 179.236 256.726 186.115 244.64 189.225V190.305C251.637 191.904 258.325 194.636 264.44 198.395C270.28 201.974 275.506 206.468 279.92 211.705C284.238 216.858 287.646 222.708 290 229.005C292.42 235.487 293.64 242.356 293.6 249.275Z" fill="white"/>
</svg>
