<svg width="400" height="512" viewBox="0 0 400 512" fill="none" xmlns="http://www.w3.org/2000/svg">
<path d="M0 0V419.74L199.77 512L400 419.74V0H0Z" fill="#27E2A4"/>
<path d="M0 339.016V378.936L199.77 471.196L400 378.936V339.016L199.77 431.276L0 339.016Z" fill="white"/>
<path d="M108.2 323.315V273.005L207.56 183.155C213.356 177.71 218.437 171.551 222.68 164.825C226.528 158.568 228.525 151.35 228.44 144.005C228.44 134.905 225.56 127.538 219.8 121.905C214.04 116.272 206.373 113.455 196.8 113.455C186.72 113.455 178.5 116.995 172.14 124.075C165.78 131.155 161.986 140.465 160.76 152.005L102.76 144.085C103.945 131.95 107.556 120.177 113.38 109.465C118.831 99.5667 126.098 90.7836 134.8 83.5749C143.612 76.358 153.681 70.8288 164.5 67.2649C175.946 63.456 187.937 61.5408 200 61.5949C211.561 61.5725 223.07 63.1474 234.2 66.2749C244.846 69.2071 254.855 74.0898 263.72 80.6749C272.375 87.1725 279.451 95.5406 284.42 105.155C289.58 115.002 292.16 126.522 292.16 139.715C292.274 148.074 291.059 156.398 288.56 164.375C286.22 171.582 282.888 178.427 278.66 184.715C274.437 190.988 269.614 196.835 264.26 202.175C258.86 207.575 253.28 212.908 247.52 218.175L188.52 270.735H292.52V323.295L108.2 323.315Z" fill="white"/>
</svg>
