<svg width="295" height="295" viewBox="0 0 295 295" fill="none" xmlns="http://www.w3.org/2000/svg">
<circle cx="147.5" cy="147.5" r="135" fill="#2D2D2D"/>
<circle cx="147.5" cy="147.5" r="118" fill="#D9D9D9"/>
<rect x="20.5" y="140.5" width="27" height="12" rx="6" fill="#2D2D2D"/>
<rect x="245.5" y="140.5" width="27" height="12" rx="6" fill="#2D2D2D"/>
<rect x="140.5" y="272.5" width="27" height="12" rx="6" transform="rotate(-90 140.5 272.5)" fill="#2D2D2D"/>
<rect x="140.5" y="47.5" width="27" height="12" rx="6" transform="rotate(-90 140.5 47.5)" fill="#2D2D2D"/>
<path d="M101.591 95.1953C102.746 93.7064 104.889 93.4354 106.378 94.5901L145.616 125.021C147.105 126.175 147.376 128.318 146.222 129.807C145.067 131.296 142.924 131.567 141.435 130.413L102.196 99.9821C100.707 98.8274 100.436 96.6843 101.591 95.1953Z" fill="#2D2D2D"/>
<path d="M208.86 68.9103C210.194 70.2409 210.197 72.4011 208.866 73.7352L152.741 130.004C151.41 131.338 149.25 131.341 147.916 130.01C146.582 128.68 146.579 126.52 147.91 125.185L204.035 68.9164C205.366 67.5824 207.526 67.5796 208.86 68.9103Z" fill="#2D2D2D"/>
<path d="M157.5 129.999C157.5 135.246 153.247 139.499 148 139.499C142.753 139.499 138.5 135.246 138.5 129.999C138.5 124.753 142.753 120.499 148 120.499C153.247 120.499 157.5 124.753 157.5 129.999Z" fill="#2D2D2D"/>
<path d="M76.5 188L122 167.5V181.5L91.5 194.5L122 209V221.5L76.5 201.5V188Z" fill="#3D7DE4"/>
<path d="M219.5 188L173.5 167.5V181.5L204.335 194.5L173.5 209V221.5L219.5 201.5V188Z" fill="#3D7DE4"/>
<path d="M143.5 234.5H129.5L152.5 154.5H165.5L143.5 234.5Z" fill="#3D7DE4"/>
</svg>
