<svg width="1200" height="630" viewBox="0 0 1200 630" fill="none" xmlns="http://www.w3.org/2000/svg">
<rect width="1200" height="630" fill="#EDEDED"/>
<circle cx="599.5" cy="314.5" r="135" fill="#2D2D2D"/>
<circle cx="599.5" cy="314.5" r="118" fill="#D9D9D9"/>
<rect x="472.5" y="307.5" width="27" height="12" rx="6" fill="#2D2D2D"/>
<rect x="697.5" y="307.5" width="27" height="12" rx="6" fill="#2D2D2D"/>
<rect x="592.5" y="439.5" width="27" height="12" rx="6" transform="rotate(-90 592.5 439.5)" fill="#2D2D2D"/>
<rect x="592.5" y="214.5" width="27" height="12" rx="6" transform="rotate(-90 592.5 214.5)" fill="#2D2D2D"/>
<path d="M553.591 262.195C554.746 260.706 556.889 260.435 558.378 261.59L597.616 292.021C599.105 293.175 599.376 295.318 598.222 296.807C597.067 298.296 594.924 298.567 593.435 297.413L554.196 266.982C552.707 265.827 552.436 263.684 553.591 262.195Z" fill="#2D2D2D"/>
<path d="M660.86 235.91C662.194 237.241 662.197 239.401 660.866 240.735L604.741 297.004C603.41 298.338 601.25 298.341 599.916 297.01C598.582 295.68 598.579 293.52 599.91 292.185L656.035 235.916C657.366 234.582 659.526 234.58 660.86 235.91Z" fill="#2D2D2D"/>
<path d="M609.5 296.999C609.5 302.246 605.247 306.499 600 306.499C594.753 306.499 590.5 302.246 590.5 296.999C590.5 291.753 594.753 287.499 600 287.499C605.247 287.499 609.5 291.753 609.5 296.999Z" fill="#2D2D2D"/>
<path d="M615.571 322.286H628.938L664.429 355.286L630.782 386.571H615.571L649.218 355.286L615.571 322.286Z" fill="#3D7DE4"/>
<path d="M568.429 315H557.508L535 399H545.921L568.429 315Z" fill="#3D7DE4"/>
<path d="M607.857 322.286H595.429L562.429 355.286L593.714 386.571H607.857L576.571 355.286L607.857 322.286Z" fill="#3D7DE4"/>
</svg>
